<svg width="201" height="82" viewBox="0 0 201 82" fill="none" xmlns="http://www.w3.org/2000/svg">
<g clip-path="url(#clip0)">
<path d="M201 49.5995L198.951 50.0324V57.4843L191.834 59.0652C191.767 58.2291 191.709 57.4363 191.64 56.5414L185.799 57.7109V60.4236L176.577 62.5578C176.542 61.5776 176.51 60.6637 176.474 59.7106C176.224 59.7255 176.047 59.7106 175.88 59.7485C174.645 60.0046 173.413 60.2664 172.181 60.5338C171.671 60.6441 171.673 60.6691 171.682 61.2198C171.694 62.0261 171.682 62.8324 171.682 63.7105L162.512 65.909C162.464 64.7901 162.421 63.7666 162.376 62.6369L156.516 63.9222V67.381L147.302 69.6809C147.251 68.4579 147.202 67.3018 147.152 66.0876C146.969 66.0983 146.787 66.1188 146.607 66.1491C145.245 66.4556 143.886 66.7695 142.524 67.0772C142.311 67.1259 142.092 67.153 141.781 67.2064V66.4813C141.781 65.5342 141.787 64.5872 141.781 63.6401C141.772 62.8101 141.411 62.4401 140.592 62.4225C139.893 62.4097 139.194 62.4225 138.495 62.4225H126.727L126.714 62.3346L200.027 48.8608C200.181 48.3061 200.214 32.2929 200.068 31.4703C199.554 31.4284 199.022 31.3722 198.489 31.3431C194.348 31.1177 190.208 30.8974 186.067 30.6822C183.119 30.528 180.171 30.388 177.223 30.2317C174.275 30.0755 171.328 29.9043 168.38 29.746C166.31 29.6344 164.239 29.5383 162.169 29.4281C159.153 29.2671 156.138 29.1029 153.123 28.9356C151.143 28.8294 149.162 28.7327 147.182 28.6258C144.056 28.4603 140.93 28.2937 137.803 28.1259C135.823 28.0204 133.843 27.923 131.862 27.8167C128.757 27.6517 125.652 27.4851 122.546 27.3168C120.566 27.2113 118.586 27.1139 116.605 27.0063C113.478 26.8408 110.35 26.674 107.222 26.5058C105.961 26.4381 104.7 26.3799 103.44 26.3197C103.262 26.3116 103.085 26.3197 102.807 26.3197C102.786 28.3532 102.8 30.3494 102.798 32.3457C102.796 34.3419 102.798 36.3564 102.798 38.3614V62.386H102.017V26.2095C90.7352 26.7797 79.5395 27.3716 68.3458 27.9493C57.1596 28.5266 45.9743 29.1092 34.7899 29.6973C23.5843 30.2782 12.385 30.8568 1.19208 31.4331C1.02773 31.9526 0.989182 49.8931 1.14406 50.7799L72.7574 62.3508C72.7574 62.3751 72.754 62.3995 72.752 62.4239H60.1314C59.9285 62.4239 59.7256 62.4164 59.5227 62.4279C58.8281 62.4658 58.4406 62.8378 58.4237 63.536C58.4027 64.2564 58.4203 64.9775 58.4162 65.7006C58.4162 65.9036 58.3993 66.1004 58.3885 66.3298L57.374 66.2154C57.3436 67.4087 57.3145 68.5485 57.2861 69.6803C56.7417 69.7215 49.261 67.9215 48.0477 67.4682V64.0636L42.1969 62.7851C42.1381 63.91 42.0846 64.9376 42.0265 66.0483L32.8286 63.8532V60.8125C31.3245 60.4168 29.7629 60.1455 28.1188 59.7978C28.0613 60.7733 28.0079 61.6865 27.949 62.6999L18.7512 60.5859V57.8713L12.8882 56.7003C12.8368 57.5655 12.7908 58.3421 12.7381 59.2296L5.29121 57.5892V52.4041L3.66806 52.1335C2.7131 51.9752 1.75883 51.8108 0.801843 51.6641C0.539434 51.6235 0.268908 51.637 0.00244141 51.6262V30.5348C1.39767 30.4746 2.79291 30.4171 4.18746 30.3501C4.5405 30.3332 4.89286 30.2879 5.30338 30.25V29.4727C5.30338 27.7139 5.31488 25.9551 5.29594 24.1997C5.28235 23.775 5.41193 23.3581 5.66385 23.0159C7.02662 21.0819 8.36099 19.1289 9.70617 17.1828C9.82047 17.0184 9.93815 16.856 10.1235 16.5956C10.2283 16.7492 10.2979 16.8662 10.3805 16.9697C11.6573 18.6027 12.9315 20.237 14.2179 21.8625C14.4004 22.0916 14.4863 22.3828 14.4573 22.6743C14.4005 23.7566 14.3558 24.8342 14.3105 25.9145C14.3017 26.1303 14.3105 26.3461 14.3105 26.6018C16.3239 26.3867 18.2433 26.246 20.1768 25.9781C20.2323 24.5907 20.2938 23.2872 20.3324 21.9829C20.3412 21.6012 20.4539 21.2291 20.6584 20.9067C22.0698 18.6013 23.4651 16.2858 24.8671 13.975C24.9651 13.814 25.0788 13.6625 25.2147 13.4636C25.3053 13.5779 25.35 13.628 25.3885 13.6834C26.7344 15.7128 28.0856 17.7341 29.4126 19.7716C29.5478 19.9779 29.5911 20.2796 29.5857 20.5353C29.558 21.8206 29.4991 23.1018 29.4504 24.3851C29.443 24.6022 29.4504 24.8207 29.4504 25.1082L34.138 24.682C34.1677 24.406 34.2056 24.1672 34.2164 23.9271C34.2685 22.5992 34.3239 21.2706 34.3551 19.9421C34.3635 19.5852 34.4604 19.2361 34.6371 18.926C36.0348 16.3785 37.4239 13.8268 38.8045 11.2712C38.91 11.0763 39.0182 10.8836 39.1515 10.6421C39.2509 10.756 39.3433 10.876 39.4281 11.0013C40.7523 13.2769 42.0806 15.5532 43.3845 17.8437C43.5198 18.0798 43.5617 18.399 43.557 18.6777C43.5299 20.1423 43.4724 21.6055 43.4285 23.0693C43.4217 23.3075 43.4285 23.5429 43.4285 23.8669L49.2921 23.3785C49.3191 22.9767 49.3489 22.6648 49.3597 22.3523C49.4077 20.8891 49.4355 19.4246 49.5051 17.9621C49.5257 17.607 49.6153 17.2593 49.7689 16.9386C51.1729 14.0162 52.5966 11.1027 54.0175 8.18853C54.0892 8.04106 54.1872 7.90645 54.3036 7.71501C54.4503 7.98153 54.5633 8.17568 54.6647 8.37523C55.9267 10.8409 57.1819 13.3134 58.4521 15.771C58.6313 16.1083 58.7177 16.4872 58.7023 16.8689C58.6475 18.56 58.6069 20.2471 58.563 21.9363C58.5569 22.1521 58.563 22.3685 58.563 22.6547L64.0465 22.2583C64.0702 21.9126 64.0979 21.6494 64.1047 21.3789C64.1527 19.6201 64.1892 17.866 64.2487 16.1099C64.2575 15.8196 64.3199 15.5333 64.4327 15.2657C65.8692 11.9893 67.3172 8.7164 68.7766 5.44683C68.8494 5.31187 68.9314 5.18213 69.0221 5.05854C69.0755 5.1266 69.1241 5.19825 69.1676 5.27298C70.549 8.28053 71.9271 11.2897 73.3019 14.3004C73.3972 14.5269 73.4433 14.7711 73.4371 15.0167C73.4195 16.3906 73.3749 17.7638 73.3526 19.1384C73.3391 19.9414 73.3526 20.745 73.3526 21.6264L78.4229 21.2936C78.4425 21.0034 78.4628 20.8032 78.4675 20.603C78.5128 18.5986 78.55 16.5936 78.6028 14.5899C78.6027 14.2993 78.6538 14.0111 78.7536 13.7382C80.2009 10.1462 81.6579 6.55848 83.1246 2.97504C83.178 2.84381 83.2707 2.72813 83.3836 2.54143C83.5189 2.84245 83.6244 3.06501 83.7218 3.29162C84.9804 6.30391 86.2316 9.3189 87.5017 12.3264C87.7157 12.8212 87.8182 13.357 87.802 13.8958C87.7465 15.9678 87.712 18.0405 87.6742 20.1125C87.6742 20.304 87.6972 20.4968 87.7134 20.745L93.0285 20.4602C93.0563 20.239 93.084 20.1078 93.0867 19.9759C93.1313 17.7436 93.178 15.516 93.2105 13.2857C93.215 12.8369 93.2992 12.3926 93.4594 11.9733C94.871 8.24738 96.2735 4.51805 97.6667 0.785331C97.7424 0.582393 97.8344 0.388248 97.9832 0.0412235L102.176 10.9674L102.318 10.9641C103.709 7.33754 105.046 3.68938 106.531 0.00537109C106.593 0.0970685 106.649 0.19215 106.7 0.290163C108.191 4.25062 109.678 8.21221 111.163 12.1749C111.251 12.4289 111.297 12.6956 111.298 12.9644C111.351 15.1967 111.39 17.4236 111.434 19.6539C111.438 19.8703 111.466 20.0868 111.488 20.3642L116.846 20.6402C116.846 20.3134 116.85 20.0719 116.846 19.8284C116.806 17.7314 116.753 15.6391 116.734 13.5441C116.731 13.1646 116.802 12.7882 116.944 12.436C118.218 9.3331 119.514 6.23897 120.807 3.14348C120.901 2.91957 121.005 2.7004 121.141 2.39937C121.26 2.63343 121.35 2.7836 121.415 2.94392C122.863 6.48633 124.305 10.0308 125.744 13.5772C125.854 13.87 125.912 14.1798 125.915 14.4925C125.972 16.4738 126.008 18.4559 126.054 20.4379C126.06 20.6767 126.089 20.9155 126.109 21.1881L131.21 21.5094C131.21 21.2064 131.215 20.9865 131.21 20.7653C131.167 18.8712 131.111 16.9819 131.087 15.0898C131.076 14.733 131.141 14.378 131.277 14.048C132.581 11.1535 133.91 8.27038 135.235 5.38527C135.303 5.23713 135.4 5.10116 135.517 4.89957C135.608 5.07545 135.662 5.17016 135.706 5.2696C137.169 8.56171 138.63 11.8538 140.088 15.1459C140.201 15.4137 140.263 15.7002 140.272 15.9908C140.331 17.7496 140.367 19.5037 140.418 21.2598C140.426 21.5439 140.466 21.8267 140.494 22.1311C142.349 22.2501 144.127 22.4504 145.959 22.4869C145.959 22.1832 145.965 21.9606 145.959 21.7381C145.915 20.0719 145.857 18.4051 145.831 16.739C145.826 16.4143 145.876 16.0531 146.02 15.7683C147.323 13.172 148.652 10.5886 149.976 8.00318C150.044 7.87533 150.131 7.75965 150.236 7.5973C150.316 7.72718 150.372 7.80024 150.406 7.87533C151.89 10.909 153.371 13.9445 154.848 16.9819C154.956 17.2264 155.014 17.4903 155.019 17.7578C155.077 19.246 155.113 20.7301 155.164 22.2163C155.176 22.5464 155.219 22.8759 155.247 23.1877C156.884 23.4874 160.497 23.7289 161.084 23.5753C161.084 23.227 161.093 22.8691 161.084 22.5126C161.046 21.2064 161.007 19.9001 160.949 18.5952C160.924 18.236 161.008 17.8776 161.189 17.5663C162.474 15.3699 163.744 13.1639 165.023 10.9634C165.109 10.8146 165.226 10.6826 165.343 10.5176C165.409 10.6005 165.471 10.687 165.528 10.7767C167.016 13.5064 168.498 16.238 169.975 18.9713C170.096 19.1966 170.139 19.4827 170.152 19.7439C170.215 21.0717 170.253 22.4003 170.307 23.7282C170.318 23.9886 170.358 24.2484 170.389 24.54L175.073 24.9526C175.073 24.6468 175.08 24.4277 175.073 24.2085C175.028 22.9476 174.987 21.6866 174.927 20.4264C174.905 20.0907 174.996 19.7572 175.186 19.4794C176.46 17.567 177.722 15.6472 178.993 13.7294C179.101 13.5846 179.218 13.4459 179.342 13.3141C179.496 13.5623 179.613 13.7518 179.728 13.9418C180.942 15.9462 182.116 17.9749 183.385 19.9434C183.957 20.833 184.312 21.7211 184.22 22.7798C184.195 23.07 184.227 23.3656 184.243 23.6592C184.285 24.3729 184.332 25.0865 184.379 25.8584C186.34 26.0322 188.245 26.2893 190.212 26.4144C190.212 26.1046 190.22 25.8827 190.212 25.6609C190.168 24.6259 190.129 23.5902 190.067 22.5559C190.038 22.2193 190.144 21.8852 190.361 21.6264C191.592 20.0706 192.806 18.5039 194.03 16.944C194.149 16.7924 194.293 16.6612 194.432 16.5137C194.492 16.5716 194.549 16.6331 194.601 16.6977C195.971 18.6818 197.333 20.6706 198.715 22.6459C198.913 22.9293 198.949 23.2127 198.949 23.5327C198.944 25.5837 198.944 27.6343 198.949 29.6845C198.949 29.9226 198.969 30.1614 198.982 30.4543L201.002 30.5361L201 49.5995Z" fill="white"/>
<path d="M59.4946 78.3354V63.4897H140.635C140.79 63.9673 140.837 77.4052 140.694 78.3232C140.681 78.3406 140.665 78.3564 140.649 78.3705C140.631 78.3846 140.61 78.3943 140.588 78.3989C140.501 78.4199 140.412 78.4332 140.323 78.4389C113.549 78.4416 86.775 78.4416 60.0012 78.4389C59.888 78.4376 59.775 78.4288 59.663 78.4125C59.604 78.3936 59.5475 78.3677 59.4946 78.3354ZM64.7989 69.7896H64.8997C65.1804 71.3955 65.4617 73.0015 65.7377 74.5783H67.3608C67.5779 71.9536 67.7896 69.3858 68.0033 66.799H66.6372C66.6047 67.3402 66.5695 67.8319 66.5479 68.3244C66.5276 68.7979 66.535 69.2715 66.5087 69.745C66.4823 70.2185 66.5763 70.692 66.3362 71.2332C66.1103 69.6942 65.8993 68.2568 65.6876 66.8118H64.1632C63.9454 68.2953 63.7358 69.7281 63.5255 71.1608H63.401C63.3446 69.7127 63.2887 68.2615 63.2333 66.8071H61.7238C61.9415 69.4338 62.1552 72.005 62.371 74.5979H63.9671C64.2498 72.9629 64.5244 71.3759 64.7989 69.7896ZM108.739 70.0095C108.739 69.3682 108.755 68.7871 108.739 68.2067C108.706 67.1961 108.193 66.6799 107.187 66.6204C107.007 66.6113 106.827 66.6113 106.646 66.6204C105.605 66.6698 105.082 67.2015 105.077 68.2439C105.07 69.8882 105.07 71.5329 105.077 73.178C105.077 74.0243 105.366 74.4633 106.07 74.6737C106.824 74.8962 108.007 74.8529 108.448 74.1954C108.54 74.0674 108.606 73.9236 108.646 73.7713C108.826 72.9514 108.729 72.1302 108.725 71.2927H107.397C107.397 71.5707 107.397 71.7913 107.397 72.0125C107.397 72.44 107.409 72.8689 107.388 73.2978C107.37 73.6739 107.221 73.8227 106.915 73.8301C106.577 73.8376 106.434 73.6326 106.393 73.3309C106.374 73.1964 106.365 73.0608 106.364 72.925C106.364 71.4368 106.36 69.9486 106.364 68.4604C106.37 68.2586 106.397 68.0579 106.445 67.8617C106.5 67.6148 106.701 67.5675 106.918 67.5735C107.136 67.5796 107.324 67.6689 107.361 67.907C107.387 68.1315 107.398 68.3575 107.394 68.5835C107.398 69.0489 107.394 69.5143 107.394 70.0102L108.739 70.0095ZM84.4424 66.7523C84.8266 69.4412 85.1938 72.0172 85.5685 74.6412H87.1538C87.5257 72.003 87.9403 69.4196 88.2501 66.799H86.9225C86.7784 68.4056 86.6371 69.9723 86.4964 71.5396H86.3787C86.2374 69.9621 86.0967 68.3846 85.9513 66.7557H84.4424V66.7523ZM79.995 74.5993C80.1411 73.5244 80.0917 67.0858 79.9362 66.59H78.8175V68.7858C78.4307 68.8223 78.1189 68.8406 77.8105 68.8832C76.9509 69.0022 76.5032 69.4352 76.4714 70.2976C76.4315 71.3753 76.4308 72.4562 76.4714 73.5338C76.5059 74.3774 77.0125 74.788 77.8646 74.7082C78.2352 74.6737 78.5964 74.535 78.9684 74.4416C79.2558 74.7569 79.6169 74.6256 79.995 74.5993ZM95.0605 76.0706C95.7491 76.3119 96.4931 76.3479 97.2017 76.1741C98.1438 75.9468 98.5341 75.3339 98.5158 74.4768C98.4806 72.833 98.507 71.1879 98.503 69.5441C98.503 69.3499 98.4732 69.1558 98.4563 68.9555H97.2633C97.2633 69.5515 97.2633 70.1055 97.2633 70.6656C97.2633 71.5214 97.2721 72.3778 97.2558 73.2362C97.2491 73.611 97.0239 73.8125 96.6668 73.8281C96.334 73.8423 96.2042 73.6982 96.171 73.2599C96.1575 73.0806 96.1623 72.9 96.1616 72.7187C96.1616 71.6824 96.1616 70.6467 96.1616 69.607C96.1616 69.3905 96.1366 69.174 96.123 68.9596H94.9604C94.9483 69.2234 94.93 69.444 94.9293 69.6645C94.9266 70.6783 94.9266 71.693 94.9293 72.7086C94.9293 73.0468 94.9138 73.385 94.9435 73.7232C95.0064 74.4261 95.3885 74.7833 96.0933 74.7697C96.4632 74.7623 96.8311 74.671 97.2065 74.6162C97.3174 74.9037 97.193 75.1276 96.9434 75.2155C96.6687 75.3025 96.3821 75.3466 96.0939 75.3461C95.8545 75.3515 95.6131 75.2852 95.3642 75.2493C95.277 75.436 95.2039 75.574 95.1485 75.7181C95.112 75.8337 95.0826 75.9514 95.0605 76.0706ZM109.448 66.6001V74.5823H110.648V73.7943C110.648 72.6916 110.641 71.589 110.653 70.4864C110.653 70.2956 110.667 70.0271 110.788 69.9324C110.981 69.7935 111.216 69.7276 111.453 69.7463C111.729 69.7727 111.736 70.0528 111.736 70.2834C111.736 71.476 111.736 72.6686 111.74 73.8612C111.74 74.1014 111.761 74.3415 111.773 74.5823H112.974C112.974 72.9751 112.994 71.424 112.965 69.8742C112.952 69.1768 112.591 68.8595 111.883 68.8561C111.489 68.8561 111.093 68.9366 110.635 68.9914V66.6028L109.448 66.6001ZM136.568 70.9295L136.392 70.9227V66.6407C135.929 66.5243 135.545 66.4777 135.171 66.6583V74.5918H136.383C136.383 74.1 136.361 73.6529 136.39 73.2085C136.418 72.789 136.261 72.3412 136.575 71.8163C136.935 72.785 136.947 73.7172 137.251 74.5898H138.572C138.356 73.8173 138.2 73.0894 137.944 72.3994C137.816 72.0763 137.754 71.7311 137.759 71.3836C137.765 71.0362 137.84 70.6933 137.979 70.3748C138.161 69.931 138.261 69.4527 138.407 68.9583H137.11L136.568 70.9295ZM68.2062 71.7175C68.2062 72.235 68.1913 72.7525 68.2096 73.2693C68.2441 74.2583 68.7351 74.7352 69.7333 74.7724C69.8909 74.7785 70.0492 74.7799 70.2067 74.7724C71.1536 74.7264 71.6676 74.2313 71.6892 73.2923C71.7122 72.2804 71.7122 71.2679 71.6892 70.255C71.6696 69.3493 71.1732 68.8561 70.2615 68.7878C70.0589 68.7739 69.8555 68.7739 69.6528 68.7878C68.7324 68.8453 68.2549 69.3154 68.2116 70.2354C68.1866 70.7265 68.2062 71.2224 68.2062 71.7175ZM72.3412 71.7703C72.3412 72.3115 72.3277 72.8526 72.3446 73.3897C72.3662 74.1095 72.6908 74.5803 73.3766 74.6926C73.8841 74.7647 74.4002 74.7489 74.9024 74.6459C75.44 74.5438 75.7572 74.1217 75.7708 73.5758C75.7998 72.3845 75.7971 71.1919 75.7755 70C75.7647 69.45 75.4502 69.0448 74.9186 68.9177C74.4844 68.8099 74.0355 68.774 73.5897 68.8115C72.7781 68.8913 72.3642 69.3898 72.3432 70.2178C72.3297 70.7353 72.3405 71.2528 72.3412 71.7703ZM115.748 71.0634C115.33 71.0634 115.012 71.0377 114.701 71.0688C113.968 71.1419 113.613 71.5275 113.589 72.2567C113.575 72.6626 113.579 73.0684 113.589 73.4743C113.605 74.3409 114.021 74.7528 114.902 74.7129C115.23 74.698 115.55 74.51 115.878 74.4931C116.206 74.4761 116.525 74.5729 116.849 74.6128C116.881 74.6168 116.92 74.5695 117.002 74.5161C117.002 73.0414 117.032 71.5396 116.989 70.0325C116.969 69.3296 116.489 68.9075 115.767 68.8047C115.52 68.7748 115.271 68.7687 115.023 68.7864C113.989 68.8392 113.529 69.4379 113.694 70.5303H114.79C114.812 70.366 114.832 70.255 114.841 70.1434C114.866 69.8451 115.033 69.6807 115.325 69.6983C115.616 69.7159 115.739 69.9378 115.748 70.2138C115.756 70.4769 115.748 70.7434 115.748 71.0634ZM90.7058 68.9265V74.5817H91.8886V73.7875C91.8886 72.6639 91.8839 71.5396 91.8886 70.4154C91.8886 69.9729 92.1274 69.7193 92.5129 69.7003C92.8652 69.6841 93.0147 69.8755 93.0181 70.4039C93.0255 71.5538 93.0181 72.6971 93.0181 73.8437C93.0181 74.0845 93.0181 74.3253 93.0181 74.5918H94.2064C94.2296 74.4914 94.2459 74.3894 94.2551 74.2867C94.2582 72.8932 94.2582 71.4995 94.2551 70.1055C94.251 69.9485 94.2283 69.7925 94.1874 69.6408C94.0589 69.126 93.8378 68.9048 93.3028 68.8751C92.9038 68.8527 92.4993 68.9217 92.0976 68.9535C91.9908 68.9616 91.8271 69.034 91.7872 68.9894C91.4463 68.616 91.0973 68.8595 90.7058 68.9265ZM120.835 74.5993V70.7083C120.835 70.573 120.828 70.4377 120.839 70.3024C120.847 70.1336 120.922 69.975 121.046 69.8609C121.171 69.7469 121.336 69.6868 121.504 69.6936C121.809 69.701 121.962 69.8782 121.966 70.3085C121.977 71.4997 121.966 72.6916 121.972 73.8836C121.972 74.121 121.993 74.3571 122.003 74.5986H123.153C123.179 74.4807 123.198 74.3611 123.208 74.2407C123.212 72.8689 123.212 71.4972 123.208 70.1258C123.2 69.9467 123.174 69.7688 123.13 69.5948C123.041 69.17 122.772 68.9041 122.344 68.8852C121.917 68.8663 121.496 68.9211 121.071 68.9434C120.946 68.9501 120.771 69.011 120.706 68.9549C120.335 68.6166 120.002 68.8642 119.644 68.9549V74.5993H120.835ZM132.156 74.6074V73.7997C132.156 72.6734 132.148 71.5471 132.164 70.4174C132.164 70.2327 132.216 69.9811 132.342 69.883C132.494 69.7632 132.757 69.7145 132.957 69.7416C133.236 69.7795 133.24 70.0528 133.241 70.2828C133.241 71.4767 133.241 72.6707 133.246 73.868C133.246 74.1081 133.267 74.3483 133.278 74.581H134.482C134.482 72.99 134.482 71.4598 134.482 69.9297C134.482 69.8616 134.476 69.7937 134.464 69.7267C134.372 69.1943 134.112 68.9109 133.573 68.8764C133.174 68.8507 132.768 68.9204 132.365 68.9441C132.239 68.9522 132.062 69.0117 131.995 68.9535C131.622 68.6153 131.296 68.8602 130.955 68.9535V74.6033L132.156 74.6074ZM125.925 66.7936C125.925 69.4365 125.925 72.0084 125.925 74.6256C126.867 74.6466 127.706 74.648 128.599 74.6256C128.579 74.2712 128.566 74.0168 128.552 73.7537L127.282 73.6563V66.7936H125.925ZM99.2571 66.5906C99.2265 66.6768 99.2039 66.7656 99.1894 66.8558C99.1854 69.3285 99.1854 71.8007 99.1894 74.2725C99.1894 74.3896 99.2618 74.5066 99.3051 74.6371C99.508 74.6371 99.6622 74.6419 99.8184 74.6371C99.9922 74.6311 100.165 74.6162 100.374 74.6026V66.5933L99.2571 66.5906ZM128.988 68.9461V74.5851H130.138V68.9461H128.988ZM118.88 68.9643H117.701V74.5851H118.88V68.9643ZM89.9652 74.6081C89.9463 72.6754 90.0017 70.8199 89.9327 68.9664H88.7566V74.6081H89.9652ZM100.877 75.5314C101.226 75.4388 101.503 75.4502 101.597 75.3244C101.943 74.8638 102.228 74.3578 102.588 73.7868L101.385 73.4966C101.215 74.1663 101.07 74.7481 100.877 75.5314ZM80.5678 75.3204C80.6044 75.3758 80.6402 75.4313 80.6767 75.4861C80.8695 75.436 81.1501 75.4496 81.2408 75.3251C81.583 74.8665 81.865 74.3618 82.2248 73.7862L81.0257 73.5156C80.858 74.1643 80.7112 74.7427 80.5645 75.3204H80.5678ZM118.853 67.6412V66.8085H117.691V67.6412H118.853ZM89.9354 66.7882C89.7014 66.7733 89.5297 66.7516 89.3511 66.7537C89.1563 66.7537 88.9616 66.7787 88.758 66.7936V67.6398H89.9354V66.7882ZM128.978 67.6737C129.42 67.6479 129.805 67.8144 130.189 67.5384C130.177 67.2827 130.166 67.0486 130.154 66.7997H128.978V67.6737Z" fill="white"/>
<path d="M139.851 31.4663L150.262 31.81C150.343 31.9591 150.415 32.1135 150.477 32.272C151.522 35.5048 152.578 38.7349 153.598 41.9758C154.154 43.7407 154.432 45.5685 154.706 47.3936C154.737 47.5395 154.777 47.6834 154.825 47.8245C155.135 47.7454 155.055 47.5357 155.04 47.3808C154.949 46.4168 154.83 45.4555 154.75 44.4916C154.621 42.9432 154.488 41.3947 154.406 39.8443C154.276 37.4151 154.186 34.9846 154.081 32.5547C154.073 32.3782 154.081 32.2009 154.081 31.9459L160.051 32.1489C160.34 39.3153 160.626 46.4127 160.915 53.5826L151.98 54.604C151.87 54.3388 151.759 54.0994 151.67 53.8525C150.313 50.1069 148.922 46.3735 147.621 42.609C147.027 40.8901 146.614 39.1083 146.117 37.3556C146.076 37.1861 145.989 37.0312 145.866 36.9078C146.021 38.9047 146.205 40.8989 146.324 42.8992C146.445 44.9448 146.507 46.9938 146.588 49.0415C146.668 51.0634 146.738 53.0847 146.816 55.1871L140.922 55.8548C140.72 55.2629 139.765 33.3225 139.851 31.4663Z" fill="white"/>
<path d="M114.692 58.8378L107.243 60.2265C107.085 59.7084 107.058 31.1603 107.227 30.3628L121.413 30.8363C121.472 32.0776 121.527 33.2621 121.588 34.5406C119.379 34.6022 117.211 34.4973 114.944 34.4845C115.033 36.6667 115.119 38.7705 115.208 40.9474C115.463 40.9589 115.682 40.9805 115.896 40.9765C117.609 40.9427 119.32 40.9027 121.036 40.8696C121.232 40.8655 121.428 40.8926 121.675 40.9088C121.728 42.1826 121.78 43.4117 121.834 44.718C121.006 44.7735 120.224 44.739 119.444 44.745C118.678 44.7511 117.912 44.745 117.145 44.745H114.697C114.682 49.4823 114.701 54.1323 114.692 58.8378Z" fill="white"/>
<path d="M124.484 57.7243C124.122 48.7673 123.764 39.8928 123.402 30.9263C128.192 31.0372 132.907 31.2415 137.715 31.393C137.76 32.5193 137.803 33.6091 137.851 34.7517H131.23C131.309 36.708 131.388 38.6474 131.47 40.6673L137.915 40.5415C137.972 41.726 138.027 42.8415 138.085 44.0449C135.935 44.2208 133.825 44.2214 131.742 44.3567C131.598 44.8343 131.854 52.019 132.05 52.983C133.108 52.8937 134.178 52.8064 135.246 52.7124C136.313 52.6184 137.391 52.5149 138.565 52.4066C138.614 53.6574 138.66 54.8338 138.71 56.1069L124.484 57.7243Z" fill="white"/>
<path d="M180.56 39.214L172.954 39.3371C172.932 39.028 172.912 38.8088 172.902 38.589C172.861 37.6893 172.834 36.7882 172.778 35.8892C172.738 35.2682 172.541 35.0484 171.922 34.9577C171.568 34.9046 171.208 34.9033 170.853 34.9537C170.345 35.0308 170.155 35.2601 170.155 35.7857C170.155 36.4378 170.214 37.0899 170.239 37.7427C170.341 40.3539 170.442 42.9648 170.542 45.5755C170.584 46.6578 170.625 47.7402 170.677 48.8164C170.711 49.5382 170.963 49.775 171.682 49.7871C171.817 49.7888 171.953 49.7834 172.088 49.7709C173.034 49.6911 173.326 49.3826 173.298 48.4471C173.263 47.2551 173.208 46.0639 173.159 44.7894C175.669 44.5709 178.156 44.4871 180.598 44.3288C180.672 44.412 180.724 44.4438 180.725 44.4769C180.758 45.6445 180.888 46.8222 180.787 47.9789C180.675 49.2514 179.95 50.241 178.847 50.9182C177.66 51.6474 176.356 52.0648 174.996 52.3171C172.734 52.7365 170.458 53.0707 168.15 52.9537C167.393 52.9158 166.635 52.7555 165.896 52.5735C164.495 52.2285 163.67 51.2672 163.284 49.917C163.151 49.4635 163.07 48.9962 163.044 48.5242C162.928 45.9814 162.841 43.4379 162.742 40.8944C162.693 39.6334 162.634 38.3732 162.6 37.1123C162.579 36.6849 162.602 36.2565 162.668 35.8337C162.945 34.2941 163.788 33.2246 165.3 32.6882C166.298 32.3308 167.345 32.1285 168.404 32.0882C170.885 31.9989 173.366 32.0449 175.801 32.5894C176.569 32.7624 177.316 33.0189 178.028 33.3545C179.544 34.0689 180.328 35.3203 180.443 36.9864C180.49 37.6805 180.516 38.3766 180.56 39.214Z" fill="white"/>
<path d="M67.686 43.9481C67.6136 46.4686 67.5703 48.9911 67.4567 51.5096C67.4053 52.6291 67.2159 53.7419 67.078 54.8574C67.045 55.0574 66.9915 55.2535 66.9184 55.4426C66.3854 57.0079 65.3662 58.005 63.664 58.1728C62.3323 58.3047 61.0128 58.2587 59.7183 57.8629C57.6786 57.2392 56.5052 55.8525 56.1738 53.7744C56.0457 52.952 55.9927 52.1197 56.0155 51.2877C56.1359 46.4713 56.2782 41.6554 56.4423 36.8398C56.476 36.143 56.5809 35.4514 56.7554 34.776C57.3174 32.476 58.8615 31.2239 61.1433 30.8579C62.3269 30.6764 63.5333 30.7068 64.7062 30.9479C65.983 31.2002 66.8386 31.9497 67.3302 33.1416C67.7232 34.0954 67.8618 35.1034 67.8544 36.1181C67.8355 38.7299 67.7671 41.3403 67.7191 43.9515L67.686 43.9481ZM62.8213 44.3425H62.8118C62.893 41.6186 62.9739 38.8943 63.0546 36.1695C63.0725 35.8311 63.0641 35.4919 63.0296 35.1548C62.9768 34.7401 62.7455 34.5324 62.3796 34.4878C62.0137 34.4431 61.6512 34.6231 61.514 34.987C61.4306 35.2192 61.3838 35.4629 61.3753 35.7095C61.3259 36.7918 61.2928 37.8701 61.2597 38.9504C61.1808 41.4944 61.1037 44.0385 61.0284 46.5829C60.9675 48.6543 60.9059 50.7256 60.8593 52.7976C60.8477 53.111 60.8846 53.4243 60.9688 53.7264C61.0858 54.118 61.3902 54.2621 61.8163 54.2371C62.1943 54.2148 62.3877 53.9827 62.4676 53.6547C62.5186 53.4124 62.5446 53.1656 62.5453 52.918C62.64 50.0606 62.732 47.2021 62.8213 44.3425Z" fill="white"/>
<path d="M87.0252 40.4579H82.3188C82.3188 39.613 82.3086 38.808 82.3188 38.0037C82.335 37.0357 82.3742 36.0677 82.3952 35.099C82.4042 34.8964 82.3897 34.6935 82.3519 34.4942C82.2633 34.0782 82.0455 33.8929 81.6675 33.8685C81.2502 33.8414 80.9729 33.9997 80.8397 34.4097C80.76 34.6669 80.7168 34.934 80.7112 35.2032C80.6192 38.0619 80.5329 40.9208 80.4522 43.78C80.3507 47.225 80.2524 50.67 80.1573 54.115C80.1406 54.4749 80.1562 54.8355 80.2039 55.1926C80.2716 55.6458 80.5678 55.8792 80.9844 55.89C81.3902 55.9002 81.6195 55.7277 81.7284 55.2609C81.7984 54.9542 81.8371 54.6412 81.844 54.3267C81.9008 52.616 81.9448 50.9045 81.9948 49.1931C81.9996 49.0395 82.0171 48.886 82.034 48.6614C83.6281 48.6073 85.185 48.7595 86.7831 48.8305C86.8134 48.9656 86.8328 49.1029 86.8413 49.2411C86.7885 51.0872 86.7588 52.9346 86.6621 54.7793C86.6091 55.9075 86.34 57.0151 85.8694 58.0419C85.2607 59.3623 84.2253 60.0712 82.7956 60.2742C81.2103 60.4981 79.7014 60.2519 78.248 59.6085C77.1409 59.1181 76.3807 58.2935 75.9357 57.1733C75.5915 56.3081 75.3778 55.405 75.3697 54.4769C75.3548 52.7434 75.3681 51.0091 75.4096 49.2742C75.4718 46.5946 75.552 43.9153 75.6503 41.2365C75.718 39.3911 75.7856 37.5451 75.9168 35.7037C75.9776 34.9185 76.1244 34.1422 76.3544 33.3889C76.9996 31.2398 78.5362 30.0817 80.7051 29.7644C81.7799 29.6115 82.8735 29.6525 83.9338 29.8855C85.0835 30.1331 85.931 30.7649 86.4443 31.8472C86.9102 32.8026 87.164 33.8475 87.1882 34.9103C87.2146 36.688 87.1355 38.4671 87.0976 40.2462C87.0976 40.303 87.0577 40.3646 87.0252 40.4579Z" fill="white"/>
<path d="M54.2842 56.8382L49.4824 56.3268C49.5947 52.3857 49.7049 48.5022 49.8172 44.5604L48.2596 44.4745C48.1399 48.3899 48.0222 52.2261 47.9025 56.155L43.0581 55.6531C43.2874 47.8737 43.516 40.1228 43.7466 32.2989L48.566 32.0344C48.612 35.0359 48.3631 37.967 48.3962 40.9441H49.9193C50.0153 37.9609 50.112 34.9824 50.2101 31.9471L54.9551 31.7212C55.1154 32.3652 54.4851 55.5847 54.2842 56.8382Z" fill="white"/>
<path d="M88.7795 29.9571L97.93 29.4795C97.8833 30.963 97.8387 32.3883 97.7948 33.8582L93.5577 34.0267C93.4826 36.4315 93.4095 38.7829 93.3331 41.229H97.4877C97.4377 42.7929 97.3903 44.2622 97.3416 45.7755H93.206C93.1011 49.2498 92.997 52.6828 92.8908 56.2072L97.0758 56.5772C97.1489 58.1574 97.0393 59.7139 96.9663 61.3564L87.9314 60.4006C87.8699 57.8408 88.045 55.3102 88.0971 52.7789C88.1485 50.2584 88.2553 47.7392 88.3291 45.2187C88.4028 42.6759 88.4603 40.1324 88.532 37.5896C88.6091 35.0718 88.6956 32.5547 88.7795 29.9571Z" fill="white"/>
<path d="M37.0592 46.5321L41.8651 46.7594C41.8996 46.9062 41.9489 47.0111 41.9455 47.1139C41.8968 48.5541 41.8833 49.9963 41.7677 51.4311C41.7163 52.0683 41.5141 52.7123 41.276 53.3116C40.8066 54.4961 39.8774 55.18 38.6309 55.3681C36.815 55.6427 35.0343 55.4317 33.3178 54.7883C31.7407 54.1971 30.8155 53.016 30.6078 51.3729C30.4624 50.1972 30.478 48.9944 30.5017 47.8052C30.5591 44.9235 30.6599 42.0424 30.7499 39.1614C30.7722 38.4416 30.7857 37.7185 30.8615 37.0035C31.1726 34.0643 32.6476 32.871 34.8551 32.4035C36.0483 32.1543 37.2725 32.0886 38.4855 32.2087C40.6829 32.4157 41.8887 33.6293 42.166 35.8359C42.2299 36.2818 42.2622 36.7316 42.2627 37.1821C42.2445 38.2144 42.189 39.2466 42.1464 40.3276H37.3845C37.3568 40.152 37.339 39.9749 37.3311 39.7973C37.3466 38.8063 37.3723 37.8159 37.3913 36.8249C37.4018 36.5769 37.3998 36.3286 37.3852 36.0808C37.3453 35.5843 37.1769 35.3982 36.7575 35.3489C36.2206 35.286 35.9108 35.4639 35.7776 35.9496C35.7249 36.168 35.6979 36.3918 35.6971 36.6166C35.5925 40.2857 35.4901 43.9548 35.39 47.6239C35.361 48.6589 35.3163 49.6939 35.2832 50.7296C35.2711 50.9328 35.2786 51.1366 35.3055 51.3384C35.3887 51.8369 35.6957 52.0744 36.2036 52.0622C36.669 52.0507 36.9124 51.8268 36.951 51.287C37.0078 50.5009 37.0382 49.7128 37.0558 48.9248C37.0727 48.1604 37.0592 47.3987 37.0592 46.5321Z" fill="white"/>
<path d="M197.232 46.3591C197.267 47.1242 197.299 47.8135 197.334 48.5725L183.1 50.1114C182.855 44.3764 182.613 38.6996 182.368 32.9341C184.779 32.9415 187.151 33.0619 189.524 33.1303C191.882 33.1979 194.24 33.2811 196.657 33.3589C196.703 34.0523 196.743 34.6719 196.792 35.3923C195.646 35.4539 194.553 35.3849 193.461 35.3923C192.386 35.4005 191.312 35.3923 190.142 35.3923C190.197 36.6276 190.249 37.808 190.304 39.0391C190.483 39.0655 190.664 39.0827 190.845 39.0905C192.536 39.0689 194.223 39.0405 195.912 39.0155C196.174 39.0121 196.438 39.0155 196.765 39.0155V41.1612L190.429 41.4243C190.406 43.2508 190.602 45.0096 190.605 46.8265C192.865 46.7738 195.013 46.3983 197.232 46.3591Z" fill="white"/>
<path d="M73.6261 58.888L68.7411 58.3644C69.0116 49.2227 69.2821 40.1358 69.5527 30.9677L74.4532 30.6924C74.176 40.0999 73.9021 49.4507 73.6261 58.888Z" fill="white"/>
<path d="M18.7725 41.6559H15.5735C15.5735 41.3454 15.5735 41.0796 15.5735 40.8144C15.5783 40.2732 15.5877 39.7321 15.5925 39.1909C15.5925 38.9095 15.4782 38.7011 15.1867 38.6599C14.8952 38.6186 14.578 38.7045 14.5374 39.0049C14.4657 39.6063 14.4413 40.2125 14.4644 40.8178C14.4759 41.2291 14.8127 41.4774 15.092 41.7418C15.9597 42.5617 16.8098 43.4012 17.6911 44.2062C18.3674 44.8238 18.719 45.5483 18.669 46.4744C18.6338 47.1265 18.6534 47.7806 18.6304 48.4361C18.5824 49.789 17.825 50.6367 16.4933 50.7902C15.2908 50.9255 14.1052 50.8064 12.9765 50.3593C11.565 49.8033 10.9807 48.9171 10.9989 47.3984C11.0077 46.7064 11.0382 46.0144 11.0612 45.2337L14.2622 45.3819C14.2622 46.0083 14.2622 46.5637 14.2622 47.1184C14.2622 47.4782 14.2162 47.8402 14.2446 48.2007C14.2743 48.5789 14.5252 48.7886 14.858 48.7919C15.1691 48.7919 15.3463 48.6357 15.3794 48.2149C15.4224 47.6762 15.4345 47.1355 15.4159 46.5955C15.399 46.1416 15.1048 45.8108 14.7924 45.5091C13.9017 44.6479 13.034 43.7624 12.1081 42.9385C11.4101 42.3182 11.0896 41.591 11.1613 40.671C11.191 40.2895 11.212 39.9066 11.2188 39.5244C11.233 38.6585 11.6529 38.0308 12.3522 37.5627C12.944 37.1683 13.6055 36.9606 14.3041 36.8585C15.1786 36.7299 16.0537 36.6778 16.9207 36.8916C18.2057 37.2075 18.8516 37.9868 18.8678 39.2924C18.8712 40.0541 18.8076 40.8185 18.7725 41.6559Z" fill="white"/>
<path d="M8.88402 50.5988L4.69088 50.0942C4.78083 46.2383 4.86943 42.4339 4.96141 38.5632H2.67615V36.8896C2.90068 36.8477 3.07044 36.8084 3.24222 36.7861C4.33582 36.6413 5.28942 36.272 5.85752 35.2343C5.92515 35.1159 6.08409 34.986 6.21056 34.9759C7.2115 34.894 8.21515 34.8406 9.29048 34.7729L8.88402 50.5988Z" fill="white"/>
<path d="M24.4081 51.6462L21.2098 51.2768C21.2612 47.1139 21.4046 42.9854 21.504 38.7853H19.4487V36.7992L26.8469 36.3521V38.487L24.7503 38.6304C24.6354 42.9719 24.5211 47.262 24.4081 51.6462Z" fill="white"/>
<path d="M94.1028 79.5186H110.015C109.734 79.6227 109.584 79.6911 109.427 79.735C107.588 80.2525 105.746 80.7538 103.913 81.2909C103.444 81.4262 102.997 81.6521 102.56 81.8706C102.434 81.9406 102.295 81.9835 102.152 81.9965C102.008 82.0095 101.864 81.9925 101.728 81.9464C99.2799 81.1901 96.8263 80.4582 94.3753 79.7141C94.2771 79.6787 94.1811 79.6374 94.0879 79.5903C94.0913 79.5632 94.0967 79.5409 94.1028 79.5186Z" fill="white"/>
<path d="M78.8187 69.8446C78.8187 70.9864 78.8268 72.1445 78.8126 73.3087C78.8086 73.6206 78.5671 73.7917 78.2168 73.8025C77.8922 73.8127 77.7082 73.6889 77.7001 73.3243C77.6758 72.317 77.6595 71.3064 77.7096 70.3012C77.7373 69.7553 78.0903 69.6294 78.8187 69.8446Z" fill="white"/>
<path d="M70.4345 71.836C70.4345 72.2845 70.4447 72.733 70.4345 73.1802C70.4196 73.6686 70.2796 73.8499 69.9564 73.8478C69.6331 73.8458 69.4992 73.6747 69.4518 73.1856C69.4369 73.03 69.4396 72.8724 69.439 72.7154C69.439 72.2 69.4302 71.6845 69.439 71.1697C69.4478 70.7902 69.4457 70.4053 69.5147 70.0346C69.5776 69.6964 70.0301 69.5611 70.2458 69.8067C70.3642 69.9419 70.4169 70.1686 70.4264 70.358C70.4501 70.8498 70.4338 71.3436 70.4345 71.836Z" fill="white"/>
<path d="M73.5996 71.7625C73.5996 71.245 73.5834 70.7262 73.605 70.2066C73.6199 69.842 73.7998 69.6729 74.0906 69.6959C74.3814 69.7189 74.5282 69.9029 74.5289 70.1918C74.5316 71.2497 74.5316 72.308 74.5289 73.3664C74.5289 73.6613 74.3774 73.8399 74.0784 73.8399C73.793 73.8399 73.6091 73.6816 73.605 73.3806C73.5982 72.8394 73.605 72.2983 73.605 71.7571L73.5996 71.7625Z" fill="white"/>
<path d="M115.756 71.9476C115.756 72.346 115.76 72.7255 115.756 73.1057C115.746 73.7645 115.634 73.8464 114.843 73.6976C114.843 73.2085 114.812 72.6984 114.853 72.1938C114.887 71.7866 115.074 71.7406 115.756 71.9476Z" fill="white"/>
</g>
<defs>
<clipPath id="clip0">
<rect width="201" height="82" fill="white"/>
</clipPath>
</defs>
</svg>
