<svg width="20" height="20" viewBox="0 0 20 20" fill="none" xmlns="http://www.w3.org/2000/svg">
<g clip-path="url(#clip0)">
<path fill-rule="evenodd" clip-rule="evenodd" d="M19.91 15.5098C19.83 15.4298 15.7 13.0098 15.56 12.9398C15.42 12.8698 15.29 12.8398 15.16 12.8398C14.97 12.8398 14.74 12.9698 14.45 13.2398C14.17 13.5098 13.28 14.7298 13.02 14.9998C12.76 15.2698 12.54 15.3998 12.37 15.3998C12.29 15.3998 12.18 15.3798 12.05 15.3298C11.92 15.2798 10.6 14.5998 7.85 12.1798C5.1 9.75979 4.74 8.17979 4.72 7.73979C4.72 7.56979 4.85 7.34979 5.12 7.08979C5.4 6.83979 5.69 6.57979 6.01 6.34979C6.33 6.10979 6.62 5.84979 6.89 5.56979C7.16 5.28979 7.29 5.04979 7.29 4.85979C7.29 4.72979 7.26 4.58979 7.19 4.45979C7.12 4.31979 4.62 0.189787 4.53 0.0997867C4.34 -0.0802134 3.61 -0.00021334 3.24 0.199787C0.250002 1.81979 1.70618e-06 3.99979 0.0500017 4.85979C0.100002 5.74979 0.660002 10.4398 5.25 14.7898C10.95 20.1998 14.91 19.9898 15.17 19.9898C16.04 19.9898 18.69 19.5098 19.82 16.7998C19.98 16.4198 20.13 15.7298 19.91 15.5098Z" fill="#FF815A"/>
</g>
<defs>
<clipPath id="clip0">
<rect width="20" height="20" fill="white"/>
</clipPath>
</defs>
</svg>
